{
  "accessors": [
    {
      "bufferView": 2,
      "componentType": 5126,
      "count": 5353,
      "max": [
        45.4071044921875,
        45.4071044921875,
        50
      ],
      "min": [
        -131.97575378417969,
        -45.4071044921875,
        -65.838943481445312
      ],
      "type": "VEC3"
    },
    {
      "bufferView": 2,
      "byteOffset": 64236,
      "componentType": 5126,
      "count": 5353,
      "max": [
        1,
        1,
        1
      ],
      "min": [
        -1,
        -1,
        -1
      ],
      "type": "VEC3"
    },
    {
      "bufferView": 1,
      "componentType": 5126,
      "count": 5353,
      "max": [
        5.7307271957397461,
        14.833686828613281
      ],
      "min": [
        -11.536849975585938,
        -14.222597122192383
      ],
      "type": "VEC2"
    },
    {
      "bufferView": 0,
      "componentType": 5125,
      "count": 20511,
      "max": [
        5352
      ],
      "min": [
        0
      ],
      "type": "SCALAR"
    },
    {
      "bufferView": 2,
      "byteOffset": 128472,
      "componentType": 5126,
      "count": 4253,
      "max": [
        67.892013549804688,
        45.4071044921875,
        -38.078258514404297
      ],
      "min": [
        -129.75161743164062,
        -45.4071044921875,
        -115.58950805664062
      ],
      "type": "VEC3"
    },
    {
      "bufferView": 2,
      "byteOffset": 179508,
      "componentType": 5126,
      "count": 4253,
      "max": [
        0.9999995231628418,
        1,
        0.99998533725738525
      ],
      "min": [
        -0.9948199987411499,
        -1,
        -0.99999523162841797
      ],
      "type": "VEC3"
    },
    {
      "bufferView": 1,
      "byteOffset": 42824,
      "componentType": 5126,
      "count": 4253,
      "max": [
        5.7307271957397461,
        14.833686828613281
      ],
      "min": [
        -11.536849975585938,
        -14.222597122192383
      ],
      "type": "VEC2"
    },
    {
      "bufferView": 0,
      "byteOffset": 82044,
      "componentType": 5125,
      "count": 16005,
      "max": [
        4252
      ],
      "min": [
        0
      ],
      "type": "SCALAR"
    },
    {
      "bufferView": 2,
      "byteOffset": 230544,
      "componentType": 5126,
      "count": 314,
      "max": [
        -39.649555206298828,
        15.230175018310547,
        24.949228286743164
      ],
      "min": [
        -92.569801330566406,
        -15,
        -114.56401824951172
      ],
      "type": "VEC3"
    },
    {
      "bufferView": 2,
      "byteOffset": 234312,
      "componentType": 5126,
      "count": 314,
      "max": [
        0.99457001686096191,
        1,
        0.99826294183731079
      ],
      "min": [
        -0.9999995231628418,
        -1,
        -0.99993902444839478
      ],
      "type": "VEC3"
    },
    {
      "bufferView": 1,
      "byteOffset": 76848,
      "componentType": 5126,
      "count": 314,
      "max": [
        2.9901831150054932,
        18.783628463745117
      ],
      "min": [
        -2.9901831150054932,
        -0.15326599776744843
      ],
      "type": "VEC2"
    },
    {
      "bufferView": 0,
      "byteOffset": 146064,
      "componentType": 5125,
      "count": 900,
      "max": [
        313
      ],
      "min": [
        0
      ],
      "type": "SCALAR"
    },
    {
      "bufferView": 2,
      "byteOffset": 238080,
      "componentType": 5126,
      "count": 4856,
      "max": [
        61.604049682617188,
        48.771709442138672,
        20.238452911376953
      ],
      "min": [
        -48.754428863525391,
        -48.771709442138672,
        -87.324806213378906
      ],
      "type": "VEC3"
    },
    {
      "bufferView": 2,
      "byteOffset": 296352,
      "componentType": 5126,
      "count": 4856,
      "max": [
        1,
        1,
        1
      ],
      "min": [
        -1,
        -1,
        -0.99909919500350952
      ],
      "type": "VEC3"
    },
    {
      "bufferView": 1,
      "byteOffset": 79360,
      "componentType": 5126,
      "count": 4856,
      "max": [
        10.659852981567383,
        15.73357105255127
      ],
      "min": [
        -4.3458690643310547,
        -15.217716217041016
      ],
      "type": "VEC2"
    },
    {
      "bufferView": 0,
      "byteOffset": 149664,
      "componentType": 5125,
      "count": 21636,
      "max": [
        4855
      ],
      "min": [
        0
      ],
      "type": "SCALAR"
    }
  ],
  "asset": {
    "extras": {
      "author": "cristianricon (https://sketchfab.com/cristianricon)",
      "license": "CC-BY-4.0 (http://creativecommons.org/licenses/by/4.0/)",
      "source": "https://sketchfab.com/3d-models/headphones-0d6f7320eda243278919828ba6cd2619",
      "title": "Headphones"
    },
    "generator": "Sketchfab-8.55.0",
    "version": "2.0"
  },
  "bufferViews": [
    {
      "buffer": 0,
      "byteLength": 236208,
      "byteOffset": 0,
      "name": "floatBufferViews",
      "target": 34963
    },
    {
      "buffer": 0,
      "byteLength": 118208,
      "byteOffset": 236208,
      "byteStride": 8,
      "name": "floatBufferViews",
      "target": 34962
    },
    {
      "buffer": 0,
      "byteLength": 354624,
      "byteOffset": 354416,
      "byteStride": 12,
      "name": "floatBufferViews",
      "target": 34962
    }
  ],
  "buffers": [
    {
      "byteLength": 709040,
      "uri": "scene.bin"
    }
  ],
  "materials": [
    {
      "doubleSided": true,
      "name": "198193188",
      "pbrMetallicRoughness": {
        "baseColorFactor": [
          1,
          1,
          1,
          1
        ],
        "metallicFactor": 1,
        "roughnessFactor": 0.1901954167654695
      }
    },
    {
      "doubleSided": true,
      "name": "202209238",
      "pbrMetallicRoughness": {
        "baseColorFactor": [
          0.0046469190529400605,
          0.0046469190529400605,
          0.0046469190529400605,
          1
        ],
        "metallicFactor": 0,
        "roughnessFactor": 0.5
      }
    },
    {
      "doubleSided": true,
      "name": "202209238_1",
      "pbrMetallicRoughness": {
        "baseColorFactor": [
          0.007149217809741786,
          0.007149217809741786,
          0.007149217809741786,
          1
        ],
        "metallicFactor": 0,
        "roughnessFactor": 1
      }
    },
    {
      "doubleSided": true,
      "name": "202209238_2",
      "pbrMetallicRoughness": {
        "baseColorFactor": [
          0,
          0,
          0,
          1
        ],
        "metallicFactor": 0,
        "roughnessFactor": 0.5
      }
    }
  ],
  "meshes": [
    {
      "primitives": [
        {
          "attributes": {
            "NORMAL": 1,
            "POSITION": 0,
            "TEXCOORD_0": 2
          },
          "indices": 3,
          "material": 1,
          "mode": 4
        }
      ]
    },
    {
      "primitives": [
        {
          "attributes": {
            "NORMAL": 5,
            "POSITION": 4,
            "TEXCOORD_0": 6
          },
          "indices": 7,
          "material": 3,
          "mode": 4
        }
      ]
    },
    {
      "primitives": [
        {
          "attributes": {
            "NORMAL": 9,
            "POSITION": 8,
            "TEXCOORD_0": 10
          },
          "indices": 11,
          "material": 0,
          "mode": 4
        }
      ]
    },
    {
      "primitives": [
        {
          "attributes": {
            "NORMAL": 13,
            "POSITION": 12,
            "TEXCOORD_0": 14
          },
          "indices": 15,
          "material": 2,
          "mode": 4
        }
      ]
    }
  ],
  "nodes": [
    {
      "children": [
        1
      ],
      "name": "RootNode (gltf orientation matrix)",
      "rotation": [
        -0.70710678118654746,
        -0,
        -0,
        0.70710678118654757
      ]
    },
    {
      "children": [
        2
      ],
      "matrix": [
        -2.2204460492503131e-16,
        -1,
        1.1102230246251565e-16,
        0,
        1.1102230246251565e-16,
        -2.2204460492503131e-16,
        -1,
        0,
        1,
        -1.1102230246251565e-16,
        0,
        0,
        3.1415152549743652,
        234.63740539550781,
        -32.795112609863281,
        1
      ],
      "name": "RootNode (model correction matrix)"
    },
    {
      "children": [
        3,
        4,
        5,
        6
      ],
      "name": "cascos5.obj.cleaner.materialmerger.gles"
    },
    {
      "mesh": 0,
      "name": ""
    },
    {
      "mesh": 1,
      "name": ""
    },
    {
      "mesh": 2,
      "name": ""
    },
    {
      "mesh": 3,
      "name": ""
    }
  ],
  "scene": 0,
  "scenes": [
    {
      "name": "OSG_Scene",
      "nodes": [
        0
      ]
    }
  ]
}

