{
  "accessors": [
    {
      "bufferView": 2,
      "componentType": 5126,
      "count": 8298,
      "max": [
        16.277200698852539,
        34.662200927734375,
        40.098800659179688
      ],
      "min": [
        -27.656499862670898,
        -19.119100570678711,
        0.057000000029802322
      ],
      "type": "VEC3"
    },
    {
      "bufferView": 2,
      "byteOffset": 99576,
      "componentType": 5126,
      "count": 8298,
      "max": [
        1,
        1,
        1
      ],
      "min": [
        -1,
        -1,
        -1
      ],
      "type": "VEC3"
    },
    {
      "bufferView": 3,
      "componentType": 5126,
      "count": 8298,
      "max": [
        1,
        0.99964570999145508,
        1,
        1
      ],
      "min": [
        -1,
        -1,
        -0.99999994039535522,
        1
      ],
      "type": "VEC4"
    },
    {
      "bufferView": 1,
      "componentType": 5126,
      "count": 8298,
      "max": [
        0.9570000171661377,
        0.98820000886917114
      ],
      "min": [
        0.027400000020861626,
        0.013000000268220901
      ],
      "type": "VEC2"
    },
    {
      "bufferView": 0,
      "componentType": 5125,
      "count": 45216,
      "max": [
        8297
      ],
      "min": [
        0
      ],
      "type": "SCALAR"
    },
    {
      "bufferView": 2,
      "byteOffset": 199152,
      "componentType": 5126,
      "count": 2766,
      "max": [
        15.463500022888184,
        -12.676300048828125,
        32.528999328613281
      ],
      "min": [
        -8.3907003402709961,
        -39.578601837158203,
        0.23319999873638153
      ],
      "type": "VEC3"
    },
    {
      "bufferView": 2,
      "byteOffset": 232344,
      "componentType": 5126,
      "count": 2766,
      "max": [
        0.99999701976776123,
        0.99996566772460938,
        1
      ],
      "min": [
        -0.99999320507049561,
        -0.99996042251586914,
        -1
      ],
      "type": "VEC3"
    },
    {
      "bufferView": 3,
      "byteOffset": 132768,
      "componentType": 5126,
      "count": 2766,
      "max": [
        0.68883287906646729,
        0.9722791314125061,
        1,
        1
      ],
      "min": [
        -0.99996042251586914,
        -0.97333294153213501,
        -1,
        1
      ],
      "type": "VEC4"
    },
    {
      "bufferView": 1,
      "byteOffset": 66384,
      "componentType": 5126,
      "count": 2766,
      "max": [
        0.9570000171661377,
        0.98820000886917114
      ],
      "min": [
        0.027400000020861626,
        0.013000000268220901
      ],
      "type": "VEC2"
    },
    {
      "bufferView": 0,
      "byteOffset": 180864,
      "componentType": 5125,
      "count": 15072,
      "max": [
        2765
      ],
      "min": [
        0
      ],
      "type": "SCALAR"
    }
  ],
  "asset": {
    "extras": {
      "author": "Alexandre_Gomes (https://sketchfab.com/Alexandre_Gomes)",
      "license": "CC-BY-4.0 (http://creativecommons.org/licenses/by/4.0/)",
      "source": "https://sketchfab.com/3d-models/cardboard-boxes-3e679f329a314583ab0cbb7caf33c163",
      "title": "Cardboard boxes"
    },
    "generator": "Sketchfab-6.43.0",
    "version": "2.0"
  },
  "bufferViews": [
    {
      "buffer": 0,
      "byteLength": 241152,
      "byteOffset": 0,
      "name": "floatBufferViews",
      "target": 34963
    },
    {
      "buffer": 0,
      "byteLength": 88512,
      "byteOffset": 241152,
      "byteStride": 8,
      "name": "floatBufferViews",
      "target": 34962
    },
    {
      "buffer": 0,
      "byteLength": 265536,
      "byteOffset": 329664,
      "byteStride": 12,
      "name": "floatBufferViews",
      "target": 34962
    },
    {
      "buffer": 0,
      "byteLength": 177024,
      "byteOffset": 595200,
      "byteStride": 16,
      "name": "floatBufferViews",
      "target": 34962
    }
  ],
  "buffers": [
    {
      "byteLength": 772224,
      "uri": "scene.bin"
    }
  ],
  "extensionsRequired": [
    "KHR_materials_pbrSpecularGlossiness"
  ],
  "extensionsUsed": [
    "KHR_materials_pbrSpecularGlossiness"
  ],
  "images": [
    {
      "uri": "textures/Material__25_diffuse.jpeg"
    }
  ],
  "materials": [
    {
      "doubleSided": true,
      "extensions": {
        "KHR_materials_pbrSpecularGlossiness": {
          "diffuseFactor": [
            0.61813421669246271,
            0.61813421669246271,
            0.61813421669246271,
            1
          ],
          "diffuseTexture": {
            "index": 0,
            "texCoord": 0
          },
          "glossinessFactor": 0.40000000000000002,
          "specularFactor": [
            0,
            0,
            0
          ]
        }
      },
      "name": "Material__25"
    }
  ],
  "meshes": [
    {
      "primitives": [
        {
          "attributes": {
            "NORMAL": 1,
            "POSITION": 0,
            "TANGENT": 2,
            "TEXCOORD_0": 3
          },
          "indices": 4,
          "material": 0,
          "mode": 4
        }
      ]
    },
    {
      "primitives": [
        {
          "attributes": {
            "NORMAL": 6,
            "POSITION": 5,
            "TANGENT": 7,
            "TEXCOORD_0": 8
          },
          "indices": 9,
          "material": 0,
          "mode": 4
        }
      ]
    }
  ],
  "nodes": [
    {
      "children": [
        1
      ],
      "name": "RootNode (gltf orientation matrix)",
      "rotation": [
        -0.70710678118654746,
        -0,
        -0,
        0.70710678118654757
      ]
    },
    {
      "children": [
        2
      ],
      "name": "RootNode (model correction matrix)"
    },
    {
      "children": [
        3,
        4
      ],
      "name": "Carton.obj.cleaner.materialmerger.gles"
    },
    {
      "mesh": 0,
      "name": ""
    },
    {
      "mesh": 1,
      "name": ""
    }
  ],
  "samplers": [
    {
      "magFilter": 9729,
      "minFilter": 9987,
      "wrapS": 10497,
      "wrapT": 10497
    }
  ],
  "scene": 0,
  "scenes": [
    {
      "name": "OSG_Scene",
      "nodes": [
        0
      ]
    }
  ],
  "textures": [
    {
      "sampler": 0,
      "source": 0
    }
  ]
}

